<svg width="138" height="133" viewBox="0 0 138 133" fill="none" xmlns="http://www.w3.org/2000/svg">
<path d="M3.64927 115.996C-0.242803 119.633 -0.449697 125.736 3.18716 129.628C6.82401 133.52 12.9274 133.727 16.8195 130.09L3.64927 115.996ZM137.543 13.4162C137.724 8.09245 133.554 3.6304 128.231 3.44993L41.4751 0.509067C36.1514 0.328601 31.6893 4.49806 31.5088 9.82181C31.3284 15.1456 35.4978 19.6076 40.8216 19.7881L117.938 22.4022L115.324 99.5183C115.143 104.842 119.313 109.304 124.636 109.485C129.96 109.665 134.422 105.496 134.603 100.172L137.543 13.4162ZM16.8195 130.09L134.489 20.1367L121.319 6.04222L3.64927 115.996L16.8195 130.09Z" fill="white"/>
</svg>
